<svg width="77" height="68" viewBox="0 0 77 68" fill="none" xmlns="http://www.w3.org/2000/svg">
<g clip-path="url(#clip0_2492_5355)">
<path d="M39.8333 22C40.1732 22.0004 40.5 22.1305 40.7472 22.3638C40.9943 22.5971 41.143 22.9159 41.1629 23.2552C41.1828 23.5944 41.0724 23.9285 40.8543 24.1891C40.6362 24.4497 40.3268 24.6172 39.9893 24.6573L39.8333 24.6667H29.1667V43.3333H47.8333V32.6667C47.8337 32.3268 47.9638 32 48.1971 31.7528C48.4304 31.5057 48.7493 31.357 49.0885 31.3371C49.4278 31.3172 49.7618 31.4276 50.0224 31.6457C50.283 31.8638 50.4505 32.1732 50.4907 32.5107L50.5 32.6667V43.3333C50.5002 44.0061 50.2461 44.6541 49.7887 45.1474C49.3312 45.6407 48.7042 45.9429 48.0333 45.9933L47.8333 46H29.1667C28.4939 46.0002 27.8459 45.7461 27.3526 45.2887C26.8593 44.8312 26.5571 44.2042 26.5067 43.5333L26.5 43.3333V24.6667C26.4998 23.9939 26.7539 23.3459 27.2113 22.8526C27.6688 22.3593 28.2958 22.0571 28.9667 22.0067L29.1667 22H39.8333ZM48.1573 22.4573C48.3973 22.2182 48.7192 22.0794 49.0578 22.069C49.3964 22.0587 49.7263 22.1776 49.9804 22.4017C50.2345 22.6257 50.3937 22.9381 50.4259 23.2753C50.458 23.6125 50.3605 23.9493 50.1533 24.2173L50.0427 24.344L36.8427 37.5427C36.6027 37.7818 36.2808 37.9206 35.9422 37.931C35.6036 37.9413 35.2737 37.8224 35.0196 37.5983C34.7655 37.3743 34.6063 37.0619 34.5741 36.7247C34.542 36.3875 34.6395 36.0507 34.8467 35.7827L34.9573 35.6573L48.1573 22.4573Z" fill="white"/>
</g>
<rect x="1" y="1" width="75" height="66" rx="11" stroke="white" stroke-width="2"/>
<defs>
<clipPath id="clip0_2492_5355">
<rect width="32" height="32" fill="white" transform="translate(22.5 18)"/>
</clipPath>
</defs>
</svg>
