<svg width="250" height="65" viewBox="0 0 247 65" fill="none" xmlns="http://www.w3.org/2000/svg">
<g clip-path="url(#clip0_2665_4185)">
<path d="M24.9669 64.2955H17.2682V61.2685C17.2286 61.2541 17.1926 61.2397 17.153 61.2252C17.045 61.348 16.9334 61.4636 16.8255 61.59C14.9179 63.8187 12.4812 64.8879 9.57304 64.9384C7.98579 64.9637 6.43813 64.7542 4.95525 64.1654C1.84912 62.9301 0.25827 60.5967 0.0603134 57.2808C-0.00447255 56.2297 0.0243212 55.1786 0.25827 54.1419C0.862939 51.4581 2.53298 49.6665 4.95885 48.5215C6.51371 47.7882 8.16575 47.4053 9.86098 47.185C11.837 46.9286 13.8237 46.943 15.8105 46.9502C16.1596 46.9502 16.5051 46.9502 16.9406 46.9502C16.9694 46.1592 17.0126 45.4006 16.9118 44.6493C16.5879 42.2653 15.3894 41.1709 12.9959 41.1023C12.4128 41.0842 11.8118 41.142 11.2467 41.2793C9.7638 41.6368 8.88919 42.6157 8.58326 44.1111C8.55087 44.2592 8.52927 44.4109 8.49688 44.5626C8.49328 44.5807 8.47168 44.5988 8.42849 44.6566H0.945721C1.0213 44.1653 1.0609 43.6957 1.16527 43.237C1.93551 39.9103 3.95107 37.6599 7.08958 36.3993C9.16993 35.5649 11.3475 35.3085 13.5718 35.3446C15.7709 35.3807 17.9196 35.6877 19.9352 36.6377C22.7714 37.9742 24.3658 40.2354 24.8229 43.3201C24.9237 44.01 24.9597 44.7143 24.9597 45.4151C24.9705 51.4401 24.9669 57.4614 24.9669 63.4864V64.2991V64.2955ZM16.9478 52.3539C16.8363 52.3142 16.7751 52.2708 16.7175 52.2708C14.9071 52.2781 13.0895 52.1336 11.2971 52.4514C8.75962 52.8993 7.78063 54.1238 7.90301 56.3633C7.98219 57.8262 8.72003 58.8737 10.1201 59.2638C12.0277 59.7984 13.7985 59.4228 15.3894 58.2633C16.192 57.6781 16.6959 56.8618 16.8651 55.8649C17.063 54.6945 16.9334 53.517 16.9478 52.3539Z" fill="#DDDDDD" fill-opacity="0.9"/>
<path d="M246.887 52.1119H228.463C228.61 54.1419 228.931 56.0347 230.287 57.5879C230.77 58.1369 231.36 58.5523 232.055 58.7979C233.617 59.3433 235.182 59.3542 236.73 58.769C238.195 58.2128 239.109 57.1183 239.638 55.6265H246.991C246.97 55.7782 246.963 55.9227 246.923 56.06C245.793 60.0983 243.234 62.8182 239.285 64.1294C235.744 65.3069 232.145 65.2816 228.61 64.0824C224.604 62.7243 222.121 59.8743 220.965 55.8288C220.246 53.3112 220.177 50.7357 220.375 48.1423C220.537 46.0256 221.037 43.992 222.016 42.1028C224.028 38.2271 227.253 36.0309 231.518 35.3735C233.941 34.9979 236.352 35.1387 238.702 35.8828C242.766 37.1723 245.275 39.9464 246.354 44.0534C246.725 45.4549 246.894 46.8889 246.887 48.3409C246.887 49.3487 246.887 50.3565 246.887 51.3642V52.1156V52.1119ZM239.03 46.7697C238.972 45.4982 238.782 44.3423 238.238 43.2659C237.878 42.5471 237.385 41.9403 236.69 41.5249C234.718 40.3401 231.914 40.5352 230.244 42.3123C229.078 43.5513 228.603 45.0973 228.319 46.7697H239.03Z" fill="#DDDDDD" fill-opacity="0.9"/>
<path d="M115.156 52.1012H96.634C96.7959 54.189 97.1271 56.1287 98.5595 57.6891C99.1498 58.3321 99.8949 58.7438 100.733 58.9714C101.741 59.2459 102.771 59.2676 103.786 59.087C105.783 58.7366 107.122 57.5663 107.82 55.6158H115.21C115.134 55.9697 115.08 56.3021 114.99 56.6235C114.007 60.1164 111.765 62.5148 108.447 63.8188C104.52 65.3612 100.503 65.3828 96.544 63.9272C92.7432 62.5293 90.4181 59.7155 89.3024 55.8578C88.5681 53.3185 88.5033 50.7178 88.7085 48.1062C88.8705 46.0365 89.3636 44.0499 90.3065 42.186C92.1349 38.5703 95.0683 36.3706 98.9807 35.5217C101.468 34.9799 103.969 35.0521 106.438 35.7095C110.79 36.8726 113.525 39.672 114.677 44.0173C114.922 44.942 115.098 45.9065 115.141 46.8601C115.217 48.5614 115.163 50.2699 115.163 52.0976L115.156 52.1012ZM96.8103 46.7553H107.36C107.302 45.473 107.104 44.2738 106.521 43.1685C106.179 42.5183 105.722 41.9621 105.096 41.572C102.897 40.1994 99.5421 40.5389 97.9657 43.1432C97.2962 44.2485 96.9651 45.4586 96.8067 46.7553H96.8103Z" fill="#DDDDDD" fill-opacity="0.9"/>
<path d="M128.073 64.2957H120.108V35.9805H128.055V39.9213C128.207 39.7949 128.297 39.7479 128.34 39.6757C130.031 36.9052 132.594 35.6301 135.729 35.3701C136.931 35.2689 138.13 35.334 139.303 35.6446C142.24 36.4248 143.978 38.3934 144.803 41.2578C145.173 42.5509 145.314 43.8765 145.317 45.2166C145.325 51.35 145.317 57.4833 145.317 63.613C145.317 63.8261 145.317 64.0392 145.317 64.2921H137.334C137.32 64.0031 137.298 63.7286 137.298 63.4541C137.298 57.8914 137.302 52.3288 137.287 46.7662C137.287 46.0474 137.23 45.3178 137.093 44.6134C136.773 42.9699 135.743 42.0344 134.088 41.7562C133.256 41.6154 132.429 41.637 131.619 41.8502C129.664 42.3703 128.549 43.6815 128.199 45.6537C128.109 46.1666 128.081 46.6976 128.081 47.2213C128.073 52.6322 128.077 58.0395 128.077 63.4504V64.2885L128.073 64.2957Z" fill="#DDDDDD" fill-opacity="0.9"/>
<path d="M170.245 35.9804H178.257V36.7895C178.257 42.5291 178.25 48.2687 178.268 54.0083C178.268 54.7235 178.351 55.4568 178.516 56.1539C178.894 57.7613 179.949 58.6643 181.583 58.8558C182.324 58.9425 183.066 58.9099 183.793 58.7149C185.747 58.1839 187.082 56.5729 187.273 54.4924C187.316 54.0336 187.323 53.5749 187.323 53.1125C187.323 47.68 187.323 42.2474 187.323 36.8148V36.0563C187.881 35.9082 194.623 35.8901 195.306 36.0274V64.2883H187.518C187.417 63.6418 187.485 62.9916 187.471 62.345C187.457 61.7238 187.46 61.1025 187.331 60.4559C187.241 60.5932 187.143 60.7304 187.057 60.8677C185.675 63.0458 183.685 64.3136 181.176 64.7651C179.391 65.0866 177.609 65.0144 175.874 64.4292C173.042 63.4684 171.4 61.4203 170.655 58.5849C170.364 57.4796 170.245 56.3454 170.245 55.2039C170.245 49.0056 170.245 42.8036 170.245 36.6053V35.9804Z" fill="#DDDDDD" fill-opacity="0.9"/>
<path d="M77.9725 53.7916H85.0773C85.1493 54.6585 84.9621 55.4676 84.757 56.2622C83.5548 60.976 80.4883 63.7212 75.7913 64.6459C73.0523 65.1841 70.3169 65.0649 67.6427 64.198C63.9319 62.9916 61.4197 60.5245 60.0448 56.8727C59.5013 55.4279 59.1881 53.9325 59.0766 52.3973C58.8498 49.2692 58.983 46.1737 60.2031 43.2298C62.0675 38.7256 65.458 36.1285 70.2305 35.3735C72.786 34.969 75.327 35.146 77.7853 36.0237C81.5501 37.3674 83.8284 40.0367 84.6958 43.9342C84.8326 44.5482 84.9046 45.1768 85.0161 45.8594H77.465C77.4254 45.7294 77.3822 45.5921 77.3426 45.4477C77.285 45.2382 77.2346 45.0214 77.1698 44.8155C76.5976 43.0059 75.507 41.7272 73.5526 41.4491C71.5335 41.1637 69.8454 41.8103 68.6109 43.4791C67.8119 44.5591 67.3944 45.8053 67.2144 47.1201C66.8761 49.5654 66.8689 52.0108 67.4268 54.4309C67.6607 55.4423 68.0962 56.3634 68.7405 57.1942C70.4825 59.4301 75.4458 59.961 77.2454 55.9372C77.5478 55.2653 77.7241 54.5357 77.9725 53.7988V53.7916Z" fill="#DDDDDD" fill-opacity="0.9"/>
<path d="M55.3661 45.8666H47.8365C47.7106 45.4332 47.6134 45.0322 47.4838 44.6421C46.3213 41.1853 42.1282 40.2245 39.5439 42.818C38.6693 43.6958 38.1115 44.7649 37.8379 45.9497C37.1541 48.9188 37.1721 51.8952 37.9171 54.8571C37.9963 55.1714 38.1294 55.4784 38.259 55.7782C39.5439 58.7798 42.3657 59.2422 44.4785 58.7148C45.6518 58.4222 46.5408 57.6962 47.2067 56.692C47.671 55.9913 47.9625 55.2147 48.1425 54.3948C48.1857 54.2033 48.2252 54.0119 48.2756 53.7952H55.5065C55.4561 54.2611 55.4237 54.709 55.3553 55.1497C54.8694 58.1911 53.5485 60.7556 51.0326 62.6123C49.4526 63.7754 47.6602 64.4291 45.7346 64.7253C42.9488 65.1516 40.2026 65.0107 37.5392 64.0318C33.9688 62.7242 31.6077 60.2102 30.3335 56.6379C29.3042 53.7482 29.2286 50.761 29.4841 47.7521C29.6353 45.975 30.0744 44.2592 30.8302 42.6374C32.6514 38.7291 35.6928 36.3632 39.8823 35.4999C42.4881 34.9617 45.0975 35.0629 47.6494 35.8575C52.0008 37.2157 54.4555 40.2318 55.2185 44.6963C55.2797 45.0611 55.3121 45.4296 55.3697 45.8666H55.3661Z" fill="#DDDDDD" fill-opacity="0.9"/>
<path d="M151.954 41.8213H148.664V35.9733H151.932C151.983 34.1601 151.932 32.419 151.965 30.6527C154.603 29.5583 157.219 28.4746 159.933 27.3477C160.016 28.0954 159.966 28.7853 159.976 29.468C159.984 30.1904 159.976 30.9128 159.976 31.6352V35.9228H165.379V41.7491C164.799 41.8971 164.213 41.7996 163.633 41.8177C163.021 41.8357 162.409 41.8213 161.801 41.8213C161.193 41.8213 160.635 41.8213 159.976 41.8213V42.5437C159.976 46.6832 159.969 50.8226 159.984 54.9621C159.984 55.5256 160.034 56.1035 160.16 56.6525C160.394 57.6495 161.078 58.2057 162.082 58.3719C163.068 58.5344 164.036 58.4152 165.001 58.1841C165.148 58.1479 165.292 58.101 165.436 58.0612C165.573 58.5308 165.616 63.1182 165.494 64.2054C165.166 64.2885 164.814 64.3969 164.457 64.4655C162.161 64.8989 159.861 64.9603 157.572 64.4113C154.628 63.7033 152.818 61.8612 152.216 58.8776C152.062 58.1082 151.979 57.3135 151.975 56.5297C151.95 51.9099 151.954 47.29 151.95 42.6665C151.95 42.4101 151.95 42.1572 151.95 41.8249L151.954 41.8213Z" fill="#DDDDDD" fill-opacity="0.9"/>
<path d="M143.953 25.5019C143.924 25.1913 143.892 24.9818 143.888 24.7722C143.885 22.8 143.885 20.8315 143.888 18.8593C143.888 18.1549 143.896 18.1549 144.544 17.9165C148.812 16.3308 153.081 14.7451 157.35 13.1594C157.547 13.0871 157.735 12.9824 158.048 12.8343C157.763 12.697 157.605 12.6067 157.436 12.5417C153.225 10.9271 149.01 9.31974 144.799 7.70513C143.834 7.33309 143.888 7.48118 143.888 6.412C143.888 4.6168 143.888 2.82159 143.888 1.02638C143.888 0.769923 143.914 0.517077 143.928 0.181152C144.209 0.278679 144.41 0.336472 144.605 0.415938C152.206 3.47899 159.808 6.54204 167.409 9.60509C168.036 9.85794 168.039 9.86155 168.039 10.5623C168.039 12.0721 168.039 13.5856 168.039 15.0955C168.039 15.8215 168.036 15.8251 167.363 16.096C161.906 18.2958 156.446 20.4955 150.99 22.6953C148.866 23.5514 146.746 24.4074 144.623 25.2599C144.443 25.3321 144.263 25.3935 143.95 25.5091L143.953 25.5019Z" fill="#DDDDDD" fill-opacity="0.9"/>
<path d="M217.834 35.6372V43.4502C217.01 43.5152 216.204 43.5188 215.419 43.6524C214.502 43.8114 213.569 43.9956 212.698 44.3171C210.553 45.1153 209.488 46.7697 209.293 49.0164C209.257 49.4282 209.265 49.8472 209.265 50.2626C209.265 54.709 209.265 59.1519 209.265 63.5984V64.3714C208.775 64.5267 202.545 64.5845 201.343 64.4544C201.199 63.9957 201.134 37.259 201.274 36.0526C201.746 35.9009 208.584 35.8828 209.265 36.0418V40.8531C209.304 40.8711 209.344 40.8892 209.383 40.9036C210.179 39.2926 211.197 37.8731 212.745 36.9231C214.296 35.9695 216.006 35.6517 217.834 35.6372Z" fill="#DDDDDD" fill-opacity="0.9"/>
</g>
<defs>
<clipPath id="clip0_2665_4185">
<rect width="246.957" height="64.8261" fill="white" transform="translate(0.03125 0.173828)"/>
</clipPath>
</defs>
</svg>
