<svg width="22" height="22" viewBox="0 0 22 22" fill="none" xmlns="http://www.w3.org/2000/svg">
<g clip-path="url(#clip0_2492_5343)">
<path d="M11 5.49984C13.4017 5.49984 15.4733 7.20484 15.9408 9.56067L16.2158 10.9357L17.6183 11.0365C18.3074 11.0828 18.9534 11.3885 19.4262 11.8919C19.899 12.3954 20.1636 13.0592 20.1667 13.7498C20.1667 15.2623 18.9292 16.4998 17.4167 16.4998H5.5C3.47417 16.4998 1.83333 14.859 1.83333 12.8332C1.83333 10.954 3.23583 9.3865 5.09667 9.194L6.0775 9.09317L6.53583 8.22234C6.95739 7.40172 7.59721 6.71333 8.38486 6.23298C9.17251 5.75263 10.0774 5.49894 11 5.49984ZM11 3.6665C8.35083 3.6665 6.05 5.16984 4.90417 7.36984C3.55688 7.51543 2.31092 8.15378 1.4057 9.16222C0.500473 10.1707 -0.000157393 11.478 3.71184e-08 12.8332C3.71184e-08 15.8673 2.46583 18.3332 5.5 18.3332H17.4167C19.9467 18.3332 22 16.2798 22 13.7498C22 11.3298 20.1208 9.36817 17.7375 9.20317C17.4296 7.64275 16.5895 6.23762 15.3606 5.22781C14.1318 4.218 12.5905 3.66614 11 3.6665Z" fill="#E62C4C"/>
</g>
<defs>
<clipPath id="clip0_2492_5343">
<rect width="22" height="22" fill="white"/>
</clipPath>
</defs>
</svg>
