<svg width="72" height="72" viewBox="0 0 72 72" fill="none" xmlns="http://www.w3.org/2000/svg">
<path d="M23.6999 42.3002L23.9699 42.0302C24.7799 41.2202 24.9299 39.9002 24.2099 39.0002C22.0799 36.2702 20.9999 33.0302 20.9999 30.0002C20.9999 26.7602 22.0499 23.5202 24.1199 20.9702C24.8699 20.0702 24.7499 18.7202 23.9099 17.9102L23.6999 17.7002C22.6799 16.6802 20.9999 16.8002 20.0999 17.9402C17.3699 21.4802 15.8999 25.7402 15.8999 30.0002C15.8999 34.2602 17.3699 38.5202 20.0999 42.0602C20.9999 43.2002 22.6799 43.3202 23.6999 42.3002ZM55.5299 10.4702L55.2899 10.7102C54.3899 11.6102 54.4199 12.9902 55.1999 13.9502C58.9799 18.5402 60.8999 24.3902 60.8999 30.0002C60.8999 35.6102 59.0099 41.4302 55.1999 46.0502C54.3599 47.0402 54.5099 48.5401 55.4399 49.4701C56.4899 50.5201 58.2299 50.4002 59.1599 49.2602C63.8699 43.6202 65.9999 36.9302 65.9999 30.0002C65.9999 23.0402 63.6299 16.3502 59.0699 10.7102C58.1699 9.60015 56.5199 9.48015 55.5299 10.4702Z" fill="#CCCCCC"/>
<path d="M16.71 10.7102L16.47 10.4702C15.48 9.48015 13.83 9.60015 12.93 10.7102C8.37 16.3502 6 23.0402 6 30.0002C6 36.9602 8.37 43.6502 12.93 49.2902C13.83 50.4002 15.48 50.5502 16.47 49.5302L16.71 49.2902C17.61 48.3902 17.58 47.0102 16.8 46.0502C12.99 41.4302 11.1 35.6102 11.1 30.0002C11.1 24.3902 12.99 18.5702 16.8 13.9502C17.58 12.9902 17.61 11.6102 16.71 10.7102ZM48.21 42.2102C49.29 43.2901 51.06 43.1702 51.99 41.9402C54.69 38.4002 56.1 34.2002 56.1 30.0002C55.86 25.7702 54.57 21.5102 51.9 17.9702C51.6955 17.6957 51.4345 17.4684 51.1346 17.3035C50.8347 17.1386 50.5028 17.0401 50.1615 17.0145C49.8203 16.9889 49.4775 17.0368 49.1563 17.1551C48.8352 17.2734 48.5431 17.4593 48.3 17.7002L48.06 17.9402C47.25 18.7502 47.1 20.0702 47.82 20.9702C49.92 23.7302 51 26.9702 51 30.0002C51 33.2102 49.98 36.3902 47.97 38.9402C47.19 39.9002 47.31 41.3102 48.21 42.2102ZM43.5 30.0002C43.5 25.2002 38.97 21.4502 33.96 22.7702C31.56 23.4002 29.58 25.3202 28.86 27.7201C27.9 30.9002 29.04 33.8402 31.14 35.6402L22.26 62.2501C21.63 64.1101 23.01 66.0001 24.96 66.0001C26.19 66.0001 27.27 65.2201 27.66 64.0501L29.01 60.0001H43.02L44.37 64.0501C44.4808 64.4137 44.6633 64.7514 44.9067 65.0433C45.1502 65.3351 45.4495 65.5753 45.7873 65.7497C46.125 65.924 46.4942 66.029 46.8731 66.0584C47.252 66.0878 47.633 66.041 47.9936 65.9208C48.3541 65.8006 48.687 65.6095 48.9725 65.3586C49.258 65.1077 49.4904 64.8022 49.6559 64.4601C49.8215 64.118 49.9169 63.7462 49.9365 63.3667C49.9561 62.9871 49.8995 62.6075 49.77 62.2501L40.89 35.6402C42.48 34.2602 43.5 32.2802 43.5 30.0002ZM30.99 54.0002L36 39.0002L41.01 54.0002H30.99Z" fill="#CCCCCC"/>
</svg>
