<svg width="72" height="72" viewBox="0 0 72 72" fill="none" xmlns="http://www.w3.org/2000/svg">
<path d="M30.9 23.1C30.6221 23.3746 30.4014 23.7016 30.2508 24.0621C30.1002 24.4225 30.0227 24.8093 30.0227 25.2C30.0227 25.5907 30.1002 25.9775 30.2508 26.3379C30.4014 26.6984 30.6221 27.0254 30.9 27.3L36.6 33H9C7.35 33 6 34.35 6 36C6 37.65 7.35 39 9 39H36.6L30.9 44.7C30.6221 44.9746 30.4014 45.3016 30.2508 45.6621C30.1002 46.0225 30.0227 46.4093 30.0227 46.8C30.0227 47.1907 30.1002 47.5775 30.2508 47.9379C30.4014 48.2984 30.6221 48.6254 30.9 48.9C32.07 50.07 33.93 50.07 35.1 48.9L45.87 38.13C46.1481 37.8525 46.3688 37.5228 46.5193 37.1599C46.6698 36.797 46.7473 36.4079 46.7473 36.015C46.7473 35.6221 46.6698 35.233 46.5193 34.8701C46.3688 34.5072 46.1481 34.1775 45.87 33.9L35.1 23.1C34.8254 22.8221 34.4984 22.6014 34.1379 22.4508C33.7775 22.3002 33.3907 22.2227 33 22.2227C32.6093 22.2227 32.2225 22.3002 31.8621 22.4508C31.5016 22.6014 31.1746 22.8221 30.9 23.1ZM60 57H39C37.35 57 36 58.35 36 60C36 61.65 37.35 63 39 63H60C63.3 63 66 60.3 66 57V15C66 11.7 63.3 9 60 9H39C37.35 9 36 10.35 36 12C36 13.65 37.35 15 39 15H60V57Z" fill="#CCCCCC"/>
</svg>
