<svg width="22" height="22" viewBox="0 0 22 22" fill="none" xmlns="http://www.w3.org/2000/svg">
<path d="M16.5 3.4375H5.5C4.36091 3.4375 3.4375 4.36091 3.4375 5.5V16.5C3.4375 17.6391 4.36091 18.5625 5.5 18.5625H16.5C17.6391 18.5625 18.5625 17.6391 18.5625 16.5V5.5C18.5625 4.36091 17.6391 3.4375 16.5 3.4375Z" stroke="#E62C4C" stroke-width="1.4" stroke-linejoin="round"/>
<path d="M15.125 6.1875H6.875C6.4953 6.1875 6.1875 6.4953 6.1875 6.875V15.125C6.1875 15.5047 6.4953 15.8125 6.875 15.8125H15.125C15.5047 15.8125 15.8125 15.5047 15.8125 15.125V6.875C15.8125 6.4953 15.5047 6.1875 15.125 6.1875Z" stroke="#E62C4C" stroke-width="1.4" stroke-linejoin="round"/>
<path d="M11 3.4375V2.0625M14.4375 3.4375V2.0625M7.5625 3.4375V2.0625M11 19.9375V18.5625M14.4375 19.9375V18.5625M7.5625 19.9375V18.5625M18.5625 11H19.9375M18.5625 14.4375H19.9375M18.5625 7.5625H19.9375M2.0625 11H3.4375M2.0625 14.4375H3.4375M2.0625 7.5625H3.4375" stroke="#E62C4C" stroke-width="1.4" stroke-linecap="round" stroke-linejoin="round"/>
</svg>
