<svg width="22" height="22" viewBox="0 0 22 22" fill="none" xmlns="http://www.w3.org/2000/svg">
<path d="M7.5625 2.75C6.43156 2.75 5.5 3.68156 5.5 4.8125V17.1875C5.5 18.3184 6.43156 19.25 7.5625 19.25H14.4375C15.5684 19.25 16.5 18.3184 16.5 17.1875V4.8125C16.5 3.68156 15.5684 2.75 14.4375 2.75H7.5625ZM7.5625 4.125H14.4375C14.8191 4.125 15.125 4.43094 15.125 4.8125V17.1875C15.125 17.5691 14.8191 17.875 14.4375 17.875H7.5625C7.18094 17.875 6.875 17.5691 6.875 17.1875V4.8125C6.875 4.43094 7.18094 4.125 7.5625 4.125ZM11 15.8125C10.6219 15.8125 10.3125 16.1219 10.3125 16.5C10.3125 16.8781 10.6219 17.1875 11 17.1875C11.3781 17.1875 11.6875 16.8781 11.6875 16.5C11.6875 16.1219 11.3781 15.8125 11 15.8125Z" fill="#E62C4C"/>
</svg>
