<svg width="36" height="36" viewBox="0 0 36 36" fill="none" xmlns="http://www.w3.org/2000/svg">
<g clip-path="url(#clip0_3191_4194)">
<path fill-rule="evenodd" clip-rule="evenodd" d="M36 0H0V36H36V0ZM9.62054 9.62246C10.1834 9.06014 10.4999 8.29723 10.5003 7.50158C10.5007 6.70593 10.185 5.94271 9.62266 5.37982C9.06033 4.81693 8.29743 4.50048 7.50178 4.50008C6.70613 4.49968 5.94291 4.81537 5.38002 5.3777C4.81713 5.94003 4.50067 6.70293 4.50028 7.49858C4.49988 8.29423 4.81557 9.05745 5.3779 9.62034C5.94022 10.1832 6.70313 10.4997 7.49878 10.5001C8.29443 10.5005 9.05765 10.1848 9.62054 9.62246ZM4.59028 12.7216H10.5903V31.5016H4.59028V12.7216ZM14.1003 12.7216H20.0703L20.0103 15.2416C22.5003 10.6966 33.0903 10.3516 33.0903 19.6066V31.5016H27.1653V21.6466C27.1653 15.6466 20.0103 16.1566 20.0103 21.6466V31.5016H14.1003V12.7216Z" fill="black"/>
</g>
<defs>
<clipPath id="clip0_3191_4194">
<rect width="36" height="36" rx="3.17594" fill="white"/>
</clipPath>
</defs>
</svg>
