<svg width="39" height="38" viewBox="0 0 39 38" fill="none" xmlns="http://www.w3.org/2000/svg">
<g clip-path="url(#clip0_2665_4050)">
<path fill-rule="evenodd" clip-rule="evenodd" d="M38.3339 0H0.222656V38.1112H38.3339V0ZM10.4071 10.1867C11.003 9.59138 11.338 8.78374 11.3384 7.94143C11.3389 7.09912 11.0047 6.29114 10.4093 5.69524C9.81404 5.09934 9.00639 4.76433 8.16408 4.7639C7.32177 4.76348 6.51379 5.09769 5.91789 5.69299C5.32199 6.2883 4.98698 7.09594 4.98656 7.93825C4.98614 8.78056 5.32034 9.58854 5.91565 10.1844C6.51095 10.7803 7.3186 11.1154 8.16091 11.1158C9.00322 11.1162 9.8112 10.782 10.4071 10.1867ZM5.08184 13.4676H11.4337V33.3489H5.08184V13.4676ZM15.1496 13.4676H21.4697L21.4061 16.1353C24.0422 11.3238 35.2532 10.9586 35.2532 20.7563V33.3489H28.9808V22.916C28.9808 16.5641 21.4061 17.104 21.4061 22.916V33.3489H15.1496V13.4676Z" fill="#E9EDF1"/>
</g>
<defs>
<clipPath id="clip0_2665_4050">
<rect x="0.222656" width="38.1112" height="38.1112" rx="3.17594" fill="white"/>
</clipPath>
</defs>
</svg>
