<svg width="72" height="72" viewBox="0 0 72 72" fill="none" xmlns="http://www.w3.org/2000/svg">
<path d="M36 66C31.85 66 27.95 65.212 24.3 63.636C20.65 62.06 17.475 59.923 14.775 57.225C12.075 54.525 9.938 51.35 8.364 47.7C6.79 44.05 6.002 40.15 6 36C6 31.85 6.788 27.95 8.364 24.3C9.94 20.65 12.077 17.475 14.775 14.775C17.475 12.075 20.65 9.938 24.3 8.364C27.95 6.79 31.85 6.002 36 6C40.15 6 44.05 6.788 47.7 8.364C51.35 9.94 54.525 12.077 57.225 14.775C59.925 17.475 62.063 20.65 63.639 24.3C65.215 27.95 66.002 31.85 66 36C66 40.15 65.212 44.05 63.636 47.7C62.06 51.35 59.923 54.525 57.225 57.225C54.525 59.925 51.35 62.063 47.7 63.639C44.05 65.215 40.15 66.002 36 66ZM36 60C42.7 60 48.375 57.675 53.025 53.025C57.675 48.375 60 42.7 60 36C60 29.3 57.675 23.625 53.025 18.975C48.375 14.325 42.7 12 36 12C29.3 12 23.625 14.325 18.975 18.975C14.325 23.625 12 29.3 12 36C12 42.7 14.325 48.375 18.975 53.025C23.625 57.675 29.3 60 36 60ZM36 54C31 54 26.75 52.25 23.25 48.75C19.75 45.25 18 41 18 36C18 31 19.75 26.75 23.25 23.25C26.75 19.75 31 18 36 18C41 18 45.25 19.75 48.75 23.25C52.25 26.75 54 31 54 36C54 41 52.25 45.25 48.75 48.75C45.25 52.25 41 54 36 54ZM36 48C39.3 48 42.125 46.825 44.475 44.475C46.825 42.125 48 39.3 48 36C48 32.7 46.825 29.875 44.475 27.525C42.125 25.175 39.3 24 36 24C32.7 24 29.875 25.175 27.525 27.525C25.175 29.875 24 32.7 24 36C24 39.3 25.175 42.125 27.525 44.475C29.875 46.825 32.7 48 36 48ZM36 42C34.35 42 32.937 41.412 31.761 40.236C30.585 39.06 29.998 37.648 30 36C30 34.35 30.588 32.937 31.764 31.761C32.94 30.585 34.352 29.998 36 30C37.65 30 39.063 30.588 40.239 31.764C41.415 32.94 42.002 34.352 42 36C42 37.65 41.412 39.063 40.236 40.239C39.06 41.415 37.648 42.002 36 42Z" fill="#CCCCCC"/>
</svg>
