<svg width="72" height="72" viewBox="0 0 72 72" fill="none" xmlns="http://www.w3.org/2000/svg">
<path d="M36 51C36.85 51 37.563 50.712 38.139 50.136C38.715 49.56 39.002 48.848 39 48C39 47.15 38.712 46.437 38.136 45.861C37.56 45.285 36.848 44.998 36 45C35.15 45 34.437 45.288 33.861 45.864C33.285 46.44 32.998 47.152 33 48C33 48.85 33.288 49.563 33.864 50.139C34.44 50.715 35.152 51.002 36 51ZM33 39H39V21H33V39ZM24.75 63L9 47.25V24.75L24.75 9H47.25L63 24.75V47.25L47.25 63H24.75ZM27.3 57H44.7L57 44.7V27.3L44.7 15H27.3L15 27.3V44.7L27.3 57Z" fill="#CCCCCC"/>
</svg>
