<svg width="72" height="72" viewBox="0 0 72 72" fill="none" xmlns="http://www.w3.org/2000/svg">
<path d="M60 39C60 45.63 57.315 51.63 52.971 55.971L57.213 60.213C60.0028 57.4302 62.2152 54.1237 63.7231 50.4833C65.2311 46.8429 66.0049 42.9404 66 39C66 22.431 52.569 9 36 9C19.431 9 5.99999 22.431 5.99999 39C5.99497 42.9404 6.76867 46.8429 8.27664 50.4834C9.7846 54.1238 11.9971 57.4303 14.787 60.213L19.029 55.971C16.2383 53.1801 14.1789 49.7441 13.0333 45.9673C11.8877 42.1905 11.6912 38.1894 12.4612 34.3185C13.2312 30.4475 14.944 26.8263 17.4478 23.7754C19.9516 20.7245 23.1691 18.3382 26.8155 16.8278C30.4618 15.3174 34.4243 14.7296 38.3521 15.1164C42.2799 15.5032 46.0516 16.8527 49.3333 19.0453C52.6149 21.238 55.3052 24.2061 57.1658 27.6867C59.0264 31.1674 59.9998 35.0532 60 39ZM45.879 24.879L31.5 37.5L37.5 43.5L50.121 29.121L45.879 24.879Z" fill="#CCCCCC"/>
</svg>
