<svg width="22" height="22" viewBox="0 0 22 22" fill="none" xmlns="http://www.w3.org/2000/svg">
<path d="M18.333 7.33317H15.583V5.49984C15.583 4.4915 14.758 3.6665 13.7497 3.6665H8.24967C7.24134 3.6665 6.41634 4.4915 6.41634 5.49984V7.33317H3.66634C2.65801 7.33317 1.83301 8.15817 1.83301 9.1665V18.3332H20.1663V9.1665C20.1663 8.15817 19.3413 7.33317 18.333 7.33317ZM8.24967 5.49984H13.7497V7.33317H8.24967V5.49984ZM18.333 16.4998H3.66634V13.7498H5.49967V14.6665H7.33301V13.7498H14.6663V14.6665H16.4997V13.7498H18.333V16.4998ZM16.4997 11.9165V10.9998H14.6663V11.9165H7.33301V10.9998H5.49967V11.9165H3.66634V9.1665H18.333V11.9165H16.4997Z" fill="#B8233D"/>
</svg>
