<svg width="155" height="45" viewBox="0 0 155 71" fill="none" xmlns="http://www.w3.org/2000/svg">
<path d="M110.503 46.192C109.092 40.4696 104.793 40.3396 101.158 40.914C100.376 41.0356 99.2913 41.9998 99.1815 42.7083C99.0801 43.3455 99.9711 44.3894 100.689 44.8421C101.601 45.4207 102.775 45.6009 103.843 45.9279C104.312 46.0705 104.802 46.1292 105.275 46.2465C112.158 47.9905 115.456 51.5372 115.485 57.2177C115.515 63.2168 111.25 68.6123 105.013 70.0293C98.9196 71.4127 92.8854 71.3289 86.9904 68.0841C86.7159 71.1193 84.5454 70.9306 82.3665 70.8426C80.6267 70.7713 78.8785 70.8258 76.7249 70.8258C77.882 66.1389 78.9545 61.7873 80.0693 57.2806C82.9239 57.2806 85.6603 57.1884 88.3797 57.3519C89.0047 57.3896 89.6972 58.2071 90.1532 58.815C92.442 61.8502 95.2965 63.0575 98.1258 61.7915C99.0717 61.3681 99.6797 60.2068 100.444 59.3851C99.6122 58.7647 98.869 57.8927 97.9358 57.5657C95.4274 56.6895 92.7587 56.2367 90.301 55.2557C86.7075 53.822 83.646 51.5959 83.3673 47.3449C83.0591 42.6538 84.3892 38.4908 88.4388 35.5856C91.2047 33.6027 94.3929 32.8229 97.7246 32.5588C102.703 32.1647 107.534 32.8313 112.297 34.8981C112.698 32.8313 114.219 32.9193 115.798 32.9738C117.901 33.0409 120.004 32.9906 122.419 32.9906C121.359 37.2625 120.363 41.35 119.294 45.4165C119.21 45.7435 118.606 46.1417 118.234 46.1501C115.642 46.213 113.049 46.1837 110.503 46.1837V46.192Z" fill="#DDDDDD" fill-opacity="0.9"/>
<path d="M62.545 32.0599C61.7342 34.7304 61.1304 37.0906 60.2647 39.3503C60.0198 39.9875 59.019 40.3396 57.9971 41.0942C58.2674 44.9428 58.5756 49.265 58.8797 53.5872C59.0781 53.6166 59.2808 53.6417 59.4793 53.6711C61.3753 49.3782 63.2755 45.0853 65.2433 40.6331C64.3777 40.4403 63.74 40.2977 62.9673 40.1258C63.6682 37.7698 64.2848 35.4892 65.0617 33.2631C65.2306 32.781 65.9738 32.1773 66.4595 32.1731C72.6415 32.0976 78.8236 32.1228 85.3816 32.1228C84.2076 34.8394 83.1477 37.3044 82.0709 39.7653C81.9949 39.9456 81.8007 40.2139 81.6698 40.2097C78.735 40.1133 78.414 42.7418 77.3837 44.4397C72.3713 52.6733 67.4645 60.9698 62.5914 69.2873C61.8651 70.524 61.0839 71.0396 59.6186 70.9977C56.1138 70.8887 52.6047 70.9642 48.8971 70.9642C47.6598 60.756 46.4352 50.6862 45.2064 40.5409C44.3619 40.4444 43.6778 40.369 42.5208 40.2348C43.2429 37.6608 43.9227 35.1119 44.7124 32.5965C44.801 32.3156 45.5189 32.0851 45.9454 32.0809C51.3505 32.0473 56.7556 32.0599 62.5492 32.0599H62.545Z" fill="#DDDDDD" fill-opacity="0.9"/>
<path d="M47.2713 24.4048C48.7155 24.2078 49.8894 23.8389 51.0296 23.9311C56.4389 24.3545 61.8229 24.736 67.1647 23.3442C72.5529 21.9398 77.2359 19.4328 80.7197 15.0183C82.717 12.4862 85.2929 12.2389 88.1221 13.0522C90.6811 13.79 93.1936 14.6913 95.7442 15.4669C99.6375 16.6533 103.476 16.3305 106.968 14.3224C110.976 12.0167 114.818 9.43423 118.703 6.92306C121.832 4.8982 124.269 4.67182 127.993 6.41161C128.394 5.78277 128.867 5.02816 129.344 4.27774C129.543 4.31547 129.737 4.3532 129.936 4.38674C129.725 9.59773 134.268 12.1047 136.295 16.0287C134.12 18.0577 132.245 17.9445 129.931 15.6975C129.23 15.0183 128.597 14.029 127.757 13.7858C126.595 13.4504 125.168 13.4085 124.045 13.7858C123.433 13.9912 122.677 15.5885 122.926 16.1125C123.403 17.1019 124.425 18.1835 125.451 18.4979C134.5 21.3109 143.6 23.9646 152.684 26.6603C153.781 26.9873 155.014 27.1843 154.339 28.9492H146.725C145.8 27.8215 145.285 26.5429 144.437 26.2662C138.592 24.3671 132.621 23.1136 126.405 24.0359C125.65 24.1491 124.868 24.2916 124.172 24.5851C120.304 26.2117 116.402 27.0669 112.09 26.6435C108.708 26.3123 105.237 26.916 101.804 26.9915C100.406 27.025 98.9999 26.7986 97.6064 26.6351C93.9242 26.1991 90.2757 25.5409 86.5344 26.4297C85.2253 26.7399 83.6544 26.6393 82.3665 26.2243C78.5238 24.9876 74.8163 25.717 70.9947 26.3333C63.8794 27.482 56.7303 27.8048 49.6868 25.7044C49.0829 25.5242 48.479 25.3397 47.8836 25.1301C47.7738 25.0924 47.7063 24.9289 47.2671 24.409L47.2713 24.4048Z" fill="#DDDDDD" fill-opacity="0.9"/>
<path d="M29.2571 44.5571C29.5401 43.203 29.7934 41.9956 30.0426 40.805C27.0571 39.7821 26.411 40.1133 25.7523 42.9053C24.2574 49.2859 22.7541 55.6624 21.2635 62.043C21.1537 62.5084 21.1157 62.9863 21.0101 63.6738C22.0363 63.8205 22.961 63.9589 24.173 64.135C23.396 66.273 22.7119 68.3063 21.8927 70.285C21.7491 70.633 21.0312 70.9348 20.5752 70.9348C14.4564 70.9767 8.3377 70.9642 1.79668 70.9642C2.73413 68.5243 3.53645 66.2646 4.50768 64.0805C4.66814 63.7157 5.61826 63.7535 6.13343 63.4768C6.78373 63.1246 7.75919 62.7515 7.9112 62.2023C9.85366 55.0797 11.6694 47.9276 13.519 40.7924C10.2971 39.7779 9.71431 39.9749 8.81487 42.876C8.33348 44.4271 7.54805 44.9805 5.95185 44.8673C4.15297 44.7415 2.34141 44.8379 0.183594 44.8379C1.41663 40.4948 2.50188 36.4786 3.7687 32.5211C3.91649 32.0599 5.09042 31.6784 5.79139 31.6742C15.5037 31.6197 25.216 31.6365 34.9283 31.6365C36.8919 31.6365 38.8554 31.6365 41.1906 31.6365C40.6923 33.4769 40.2532 35.1119 39.8055 36.7469C39.6197 37.4176 39.417 38.0842 39.227 38.755C37.2972 45.5255 36.6934 45.8902 29.2571 44.5613V44.5571Z" fill="#DDDDDD" fill-opacity="0.9"/>
<path d="M107.986 6.88114C106.926 6.93564 106.322 6.96499 105.283 7.01949C109.81 4.11424 113.801 1.00358 118.805 0.127396C120.971 -0.249908 123.348 0.290895 125.574 0.710122C126.351 0.856851 126.954 1.88396 127.672 2.53795C127.326 2.85237 127.225 3.02006 127.14 3.01168C122.145 2.49184 118.078 4.40351 114.096 7.27102C110.722 9.70254 106.884 11.5429 103.117 13.3792C101.715 14.0625 99.9331 13.9828 98.2144 13.9116C101.542 11.7945 105.562 10.8219 107.986 6.87695V6.88114Z" fill="#DDDDDD" fill-opacity="0.9"/>
<path d="M82.2483 11.0944C78.7814 13.7523 74.9176 15.425 70.6484 15.4376C69.1873 15.4418 67.5194 14.3476 66.299 13.333C63.9216 11.3543 61.6582 9.33362 57.9718 9.36716C60.8221 7.09075 63.6936 7.0111 66.0245 8.8557C68.9678 11.1866 72.1433 11.1992 75.513 11.1069C77.7553 11.0441 80.0018 11.0944 82.2483 11.0944Z" fill="#DDDDDD" fill-opacity="0.9"/>
</svg>
