<svg width="50" height="10" viewBox="0 0 508 71" fill="none" xmlns="http://www.w3.org/2000/svg">
<path d="M110.503 46.192C109.092 40.4696 104.793 40.3396 101.158 40.914C100.376 41.0356 99.2913 41.9998 99.1815 42.7083C99.0801 43.3455 99.9711 44.3894 100.689 44.8421C101.601 45.4207 102.775 45.6009 103.843 45.9279C104.312 46.0705 104.802 46.1292 105.275 46.2465C112.158 47.9905 115.456 51.5372 115.485 57.2177C115.515 63.2168 111.25 68.6123 105.013 70.0293C98.9196 71.4127 92.8854 71.3289 86.9904 68.0841C86.7159 71.1193 84.5454 70.9306 82.3665 70.8426C80.6267 70.7713 78.8785 70.8258 76.7249 70.8258C77.882 66.1389 78.9545 61.7873 80.0693 57.2806C82.9239 57.2806 85.6603 57.1884 88.3797 57.3519C89.0047 57.3896 89.6972 58.2071 90.1532 58.815C92.442 61.8502 95.2965 63.0575 98.1258 61.7915C99.0717 61.3681 99.6797 60.2068 100.444 59.3851C99.6122 58.7647 98.869 57.8927 97.9358 57.5657C95.4274 56.6895 92.7587 56.2367 90.301 55.2557C86.7075 53.822 83.646 51.5959 83.3673 47.3449C83.0591 42.6538 84.3892 38.4908 88.4388 35.5856C91.2047 33.6027 94.3929 32.8229 97.7246 32.5588C102.703 32.1647 107.534 32.8313 112.297 34.8981C112.698 32.8313 114.219 32.9193 115.798 32.9738C117.901 33.0409 120.004 32.9906 122.419 32.9906C121.359 37.2625 120.363 41.35 119.294 45.4165C119.21 45.7435 118.606 46.1417 118.234 46.1501C115.642 46.213 113.049 46.1837 110.503 46.1837V46.192Z" fill="#DDDDDD" fill-opacity="0.9"/>
<path d="M62.545 32.0599C61.7342 34.7304 61.1304 37.0906 60.2647 39.3503C60.0198 39.9875 59.019 40.3396 57.9971 41.0942C58.2674 44.9428 58.5756 49.265 58.8797 53.5872C59.0781 53.6166 59.2808 53.6417 59.4793 53.6711C61.3753 49.3782 63.2755 45.0853 65.2433 40.6331C64.3777 40.4403 63.74 40.2977 62.9673 40.1258C63.6682 37.7698 64.2848 35.4892 65.0617 33.2631C65.2306 32.781 65.9738 32.1773 66.4595 32.1731C72.6415 32.0976 78.8236 32.1228 85.3816 32.1228C84.2076 34.8394 83.1477 37.3044 82.0709 39.7653C81.9949 39.9456 81.8007 40.2139 81.6698 40.2097C78.735 40.1133 78.414 42.7418 77.3837 44.4397C72.3713 52.6733 67.4645 60.9698 62.5914 69.2873C61.8651 70.524 61.0839 71.0396 59.6186 70.9977C56.1138 70.8887 52.6047 70.9642 48.8971 70.9642C47.6598 60.756 46.4352 50.6862 45.2064 40.5409C44.3619 40.4444 43.6778 40.369 42.5208 40.2348C43.2429 37.6608 43.9227 35.1119 44.7124 32.5965C44.801 32.3156 45.5189 32.0851 45.9454 32.0809C51.3505 32.0473 56.7556 32.0599 62.5492 32.0599H62.545Z" fill="#DDDDDD" fill-opacity="0.9"/>
<path d="M47.2713 24.4048C48.7155 24.2078 49.8894 23.8389 51.0296 23.9311C56.4389 24.3545 61.8229 24.736 67.1647 23.3442C72.5529 21.9398 77.2359 19.4328 80.7197 15.0183C82.717 12.4862 85.2929 12.2389 88.1221 13.0522C90.6811 13.79 93.1936 14.6913 95.7442 15.4669C99.6375 16.6533 103.476 16.3305 106.968 14.3224C110.976 12.0167 114.818 9.43423 118.703 6.92306C121.832 4.8982 124.269 4.67182 127.993 6.41161C128.394 5.78277 128.867 5.02816 129.344 4.27774C129.543 4.31547 129.737 4.3532 129.936 4.38674C129.725 9.59773 134.268 12.1047 136.295 16.0287C134.12 18.0577 132.245 17.9445 129.931 15.6975C129.23 15.0183 128.597 14.029 127.757 13.7858C126.595 13.4504 125.168 13.4085 124.045 13.7858C123.433 13.9912 122.677 15.5885 122.926 16.1125C123.403 17.1019 124.425 18.1835 125.451 18.4979C134.5 21.3109 143.6 23.9646 152.684 26.6603C153.781 26.9873 155.014 27.1843 154.339 28.9492H146.725C145.8 27.8215 145.285 26.5429 144.437 26.2662C138.592 24.3671 132.621 23.1136 126.405 24.0359C125.65 24.1491 124.868 24.2916 124.172 24.5851C120.304 26.2117 116.402 27.0669 112.09 26.6435C108.708 26.3123 105.237 26.916 101.804 26.9915C100.406 27.025 98.9999 26.7986 97.6064 26.6351C93.9242 26.1991 90.2757 25.5409 86.5344 26.4297C85.2253 26.7399 83.6544 26.6393 82.3665 26.2243C78.5238 24.9876 74.8163 25.717 70.9947 26.3333C63.8794 27.482 56.7303 27.8048 49.6868 25.7044C49.0829 25.5242 48.479 25.3397 47.8836 25.1301C47.7738 25.0924 47.7063 24.9289 47.2671 24.409L47.2713 24.4048Z" fill="#DDDDDD" fill-opacity="0.9"/>
<path d="M29.2571 44.5571C29.5401 43.203 29.7934 41.9956 30.0426 40.805C27.0571 39.7821 26.411 40.1133 25.7523 42.9053C24.2574 49.2859 22.7541 55.6624 21.2635 62.043C21.1537 62.5084 21.1157 62.9863 21.0101 63.6738C22.0363 63.8205 22.961 63.9589 24.173 64.135C23.396 66.273 22.7119 68.3063 21.8927 70.285C21.7491 70.633 21.0312 70.9348 20.5752 70.9348C14.4564 70.9767 8.3377 70.9642 1.79668 70.9642C2.73413 68.5243 3.53645 66.2646 4.50768 64.0805C4.66814 63.7157 5.61826 63.7535 6.13343 63.4768C6.78373 63.1246 7.75919 62.7515 7.9112 62.2023C9.85366 55.0797 11.6694 47.9276 13.519 40.7924C10.2971 39.7779 9.71431 39.9749 8.81487 42.876C8.33348 44.4271 7.54805 44.9805 5.95185 44.8673C4.15297 44.7415 2.34141 44.8379 0.183594 44.8379C1.41663 40.4948 2.50188 36.4786 3.7687 32.5211C3.91649 32.0599 5.09042 31.6784 5.79139 31.6742C15.5037 31.6197 25.216 31.6365 34.9283 31.6365C36.8919 31.6365 38.8554 31.6365 41.1906 31.6365C40.6923 33.4769 40.2532 35.1119 39.8055 36.7469C39.6197 37.4176 39.417 38.0842 39.227 38.755C37.2972 45.5255 36.6934 45.8902 29.2571 44.5613V44.5571Z" fill="#DDDDDD" fill-opacity="0.9"/>
<path d="M107.986 6.88114C106.926 6.93564 106.322 6.96499 105.283 7.01949C109.81 4.11424 113.801 1.00358 118.805 0.127396C120.971 -0.249908 123.348 0.290895 125.574 0.710122C126.351 0.856851 126.954 1.88396 127.672 2.53795C127.326 2.85237 127.225 3.02006 127.14 3.01168C122.145 2.49184 118.078 4.40351 114.096 7.27102C110.722 9.70254 106.884 11.5429 103.117 13.3792C101.715 14.0625 99.9331 13.9828 98.2144 13.9116C101.542 11.7945 105.562 10.8219 107.986 6.87695V6.88114Z" fill="#DDDDDD" fill-opacity="0.9"/>
<path d="M82.2483 11.0944C78.7814 13.7523 74.9176 15.425 70.6484 15.4376C69.1873 15.4418 67.5194 14.3476 66.299 13.333C63.9216 11.3543 61.6582 9.33362 57.9718 9.36716C60.8221 7.09075 63.6936 7.0111 66.0245 8.8557C68.9678 11.1866 72.1433 11.1992 75.513 11.1069C77.7553 11.0441 80.0018 11.0944 82.2483 11.0944Z" fill="#DDDDDD" fill-opacity="0.9"/>
<g clip-path="url(#clip0_2665_4182)">
<path d="M285.967 70.2955H278.268V67.2685C278.229 67.2541 278.193 67.2397 278.153 67.2252C278.045 67.348 277.933 67.4636 277.825 67.59C275.918 69.8187 273.481 70.8879 270.573 70.9384C268.986 70.9637 267.438 70.7542 265.955 70.1654C262.849 68.9301 261.258 66.5967 261.06 63.2808C260.996 62.2297 261.024 61.1786 261.258 60.1419C261.863 57.4581 263.533 55.6665 265.959 54.5215C267.514 53.7882 269.166 53.4053 270.861 53.185C272.837 52.9286 274.824 52.943 276.81 52.9502C277.16 52.9502 277.505 52.9502 277.941 52.9502C277.969 52.1592 278.013 51.4006 277.912 50.6493C277.588 48.2653 276.389 47.1709 273.996 47.1023C273.413 47.0842 272.812 47.142 272.247 47.2793C270.764 47.6368 269.889 48.6157 269.583 50.1111C269.551 50.2592 269.529 50.4109 269.497 50.5626C269.493 50.5807 269.472 50.5988 269.428 50.6566H261.946C262.021 50.1653 262.061 49.6957 262.165 49.237C262.936 45.9103 264.951 43.6599 268.09 42.3993C270.17 41.5649 272.347 41.3085 274.572 41.3446C276.771 41.3807 278.92 41.6877 280.935 42.6377C283.771 43.9742 285.366 46.2354 285.823 49.3201C285.924 50.01 285.96 50.7143 285.96 51.4151C285.97 57.4401 285.967 63.4614 285.967 69.4864V70.2991V70.2955ZM277.948 58.3539C277.836 58.3142 277.775 58.2708 277.717 58.2708C275.907 58.2781 274.089 58.1336 272.297 58.4514C269.76 58.8993 268.781 60.1238 268.903 62.3633C268.982 63.8262 269.72 64.8737 271.12 65.2638C273.028 65.7984 274.799 65.4228 276.389 64.2633C277.192 63.6781 277.696 62.8618 277.865 61.8649C278.063 60.6945 277.933 59.517 277.948 58.3539Z" fill="#DDDDDD" fill-opacity="0.9"/>
<path d="M507.887 58.1119H489.463C489.61 60.1419 489.931 62.0347 491.287 63.5879C491.77 64.1369 492.36 64.5523 493.055 64.7979C494.617 65.3433 496.182 65.3542 497.73 64.769C499.195 64.2128 500.109 63.1183 500.638 61.6265H507.991C507.97 61.7782 507.963 61.9227 507.923 62.06C506.793 66.0983 504.234 68.8182 500.285 70.1294C496.744 71.3069 493.145 71.2816 489.61 70.0824C485.604 68.7243 483.121 65.8743 481.965 61.8288C481.246 59.3112 481.177 56.7357 481.375 54.1423C481.537 52.0256 482.037 49.992 483.016 48.1028C485.028 44.2271 488.253 42.0309 492.518 41.3735C494.941 40.9979 497.352 41.1387 499.702 41.8828C503.766 43.1723 506.275 45.9464 507.354 50.0534C507.725 51.4549 507.894 52.8889 507.887 54.3409C507.887 55.3487 507.887 56.3565 507.887 57.3642V58.1156V58.1119ZM500.03 52.7697C499.972 51.4982 499.782 50.3423 499.238 49.2659C498.878 48.5471 498.385 47.9403 497.69 47.5249C495.718 46.3401 492.914 46.5352 491.244 48.3123C490.078 49.5513 489.603 51.0973 489.319 52.7697H500.03Z" fill="#DDDDDD" fill-opacity="0.9"/>
<path d="M376.156 58.1012H357.634C357.796 60.189 358.127 62.1287 359.56 63.6891C360.15 64.3321 360.895 64.7438 361.733 64.9714C362.741 65.2459 363.771 65.2676 364.786 65.087C366.783 64.7366 368.122 63.5663 368.82 61.6158H376.21C376.134 61.9697 376.08 62.3021 375.99 62.6235C375.007 66.1164 372.765 68.5148 369.447 69.8188C365.52 71.3612 361.503 71.3828 357.544 69.9272C353.743 68.5293 351.418 65.7155 350.302 61.8578C349.568 59.3185 349.503 56.7178 349.708 54.1062C349.87 52.0365 350.364 50.0499 351.307 48.186C353.135 44.5703 356.068 42.3706 359.981 41.5217C362.468 40.9799 364.969 41.0521 367.438 41.7095C371.79 42.8726 374.525 45.672 375.677 50.0173C375.922 50.942 376.098 51.9065 376.141 52.8601C376.217 54.5614 376.163 56.2699 376.163 58.0976L376.156 58.1012ZM357.81 52.7553H368.36C368.302 51.473 368.104 50.2738 367.521 49.1685C367.179 48.5183 366.722 47.9621 366.096 47.572C363.897 46.1994 360.542 46.5389 358.966 49.1432C358.296 50.2485 357.965 51.4586 357.807 52.7553H357.81Z" fill="#DDDDDD" fill-opacity="0.9"/>
<path d="M389.073 70.2957H381.108V41.9805H389.055V45.9213C389.207 45.7949 389.297 45.7479 389.34 45.6757C391.031 42.9052 393.594 41.6301 396.729 41.3701C397.931 41.2689 399.13 41.334 400.303 41.6446C403.24 42.4248 404.978 44.3934 405.803 47.2578C406.173 48.5509 406.314 49.8765 406.317 51.2166C406.325 57.35 406.317 63.4833 406.317 69.613C406.317 69.8261 406.317 70.0392 406.317 70.2921H398.334C398.32 70.0031 398.298 69.7286 398.298 69.4541C398.298 63.8914 398.302 58.3288 398.287 52.7662C398.287 52.0474 398.23 51.3178 398.093 50.6134C397.773 48.9699 396.743 48.0344 395.088 47.7562C394.256 47.6154 393.429 47.637 392.619 47.8502C390.664 48.3703 389.549 49.6815 389.199 51.6537C389.109 52.1666 389.081 52.6976 389.081 53.2213C389.073 58.6322 389.077 64.0395 389.077 69.4504V70.2885L389.073 70.2957Z" fill="#DDDDDD" fill-opacity="0.9"/>
<path d="M431.245 41.9804H439.257V42.7895C439.257 48.5291 439.25 54.2687 439.268 60.0083C439.268 60.7235 439.351 61.4568 439.516 62.1539C439.894 63.7613 440.949 64.6643 442.583 64.8558C443.324 64.9425 444.066 64.9099 444.793 64.7149C446.747 64.1839 448.082 62.5729 448.273 60.4924C448.316 60.0336 448.323 59.5749 448.323 59.1125C448.323 53.68 448.323 48.2474 448.323 42.8148V42.0563C448.881 41.9082 455.623 41.8901 456.306 42.0274V70.2883H448.518C448.417 69.6418 448.485 68.9916 448.471 68.345C448.457 67.7238 448.46 67.1025 448.331 66.4559C448.241 66.5932 448.143 66.7304 448.057 66.8677C446.675 69.0458 444.685 70.3136 442.176 70.7651C440.391 71.0866 438.609 71.0144 436.874 70.4292C434.042 69.4684 432.4 67.4203 431.655 64.5849C431.364 63.4796 431.245 62.3454 431.245 61.2039C431.245 55.0056 431.245 48.8036 431.245 42.6053V41.9804Z" fill="#DDDDDD" fill-opacity="0.9"/>
<path d="M338.972 59.7916H346.077C346.149 60.6585 345.962 61.4676 345.757 62.2622C344.555 66.976 341.488 69.7212 336.791 70.6459C334.052 71.1841 331.317 71.0649 328.643 70.198C324.932 68.9916 322.42 66.5245 321.045 62.8727C320.501 61.4279 320.188 59.9325 320.077 58.3973C319.85 55.2692 319.983 52.1737 321.203 49.2298C323.068 44.7256 326.458 42.1285 331.231 41.3735C333.786 40.969 336.327 41.146 338.785 42.0237C342.55 43.3674 344.828 46.0367 345.696 49.9342C345.833 50.5482 345.905 51.1768 346.016 51.8594H338.465C338.425 51.7294 338.382 51.5921 338.343 51.4477C338.285 51.2382 338.235 51.0214 338.17 50.8155C337.598 49.0059 336.507 47.7272 334.553 47.4491C332.533 47.1637 330.845 47.8103 329.611 49.4791C328.812 50.5591 328.394 51.8053 328.214 53.1201C327.876 55.5654 327.869 58.0108 328.427 60.4309C328.661 61.4423 329.096 62.3634 329.74 63.1942C331.482 65.4301 336.446 65.961 338.245 61.9372C338.548 61.2653 338.724 60.5357 338.972 59.7988V59.7916Z" fill="#DDDDDD" fill-opacity="0.9"/>
<path d="M316.366 51.8666H308.837C308.711 51.4332 308.613 51.0322 308.484 50.6421C307.321 47.1853 303.128 46.2245 300.544 48.818C299.669 49.6958 299.111 50.7649 298.838 51.9497C298.154 54.9188 298.172 57.8952 298.917 60.8571C298.996 61.1714 299.129 61.4784 299.259 61.7782C300.544 64.7798 303.366 65.2422 305.478 64.7148C306.652 64.4222 307.541 63.6962 308.207 62.692C308.671 61.9913 308.963 61.2147 309.142 60.3948C309.186 60.2033 309.225 60.0119 309.276 59.7952H316.506C316.456 60.2611 316.424 60.709 316.355 61.1497C315.869 64.1911 314.548 66.7556 312.033 68.6123C310.453 69.7754 308.66 70.4291 306.735 70.7253C303.949 71.1516 301.203 71.0107 298.539 70.0318C294.969 68.7242 292.608 66.2102 291.334 62.6379C290.304 59.7482 290.229 56.761 290.484 53.7521C290.635 51.975 291.074 50.2592 291.83 48.6374C293.651 44.7291 296.693 42.3632 300.882 41.4999C303.488 40.9617 306.098 41.0629 308.649 41.8575C313.001 43.2157 315.455 46.2318 316.219 50.6963C316.28 51.0611 316.312 51.4296 316.37 51.8666H316.366Z" fill="#DDDDDD" fill-opacity="0.9"/>
<path d="M412.954 47.8213H409.664V41.9733H412.932C412.983 40.1601 412.932 38.419 412.965 36.6527C415.603 35.5583 418.219 34.4746 420.933 33.3477C421.016 34.0954 420.966 34.7853 420.976 35.468C420.984 36.1904 420.976 36.9128 420.976 37.6352V41.9228H426.379V47.7491C425.799 47.8971 425.213 47.7996 424.633 47.8177C424.021 47.8357 423.409 47.8213 422.801 47.8213C422.193 47.8213 421.635 47.8213 420.976 47.8213V48.5437C420.976 52.6832 420.969 56.8226 420.984 60.9621C420.984 61.5256 421.034 62.1035 421.16 62.6525C421.394 63.6495 422.078 64.2057 423.082 64.3719C424.068 64.5344 425.036 64.4152 426.001 64.1841C426.148 64.1479 426.292 64.101 426.436 64.0612C426.573 64.5308 426.616 69.1182 426.494 70.2054C426.166 70.2885 425.814 70.3969 425.457 70.4655C423.161 70.8989 420.861 70.9603 418.572 70.4113C415.628 69.7033 413.818 67.8612 413.216 64.8776C413.062 64.1082 412.979 63.3135 412.975 62.5297C412.95 57.9099 412.954 53.29 412.95 48.6665C412.95 48.4101 412.95 48.1572 412.95 47.8249L412.954 47.8213Z" fill="#DDDDDD" fill-opacity="0.9"/>
<path d="M404.953 31.5019C404.924 31.1913 404.892 30.9818 404.888 30.7722C404.885 28.8 404.885 26.8315 404.888 24.8593C404.888 24.1549 404.896 24.1549 405.544 23.9165C409.812 22.3308 414.081 20.7451 418.35 19.1594C418.547 19.0871 418.735 18.9824 419.048 18.8343C418.763 18.697 418.605 18.6067 418.436 18.5417C414.225 16.9271 410.01 15.3197 405.799 13.7051C404.834 13.3331 404.888 13.4812 404.888 12.412C404.888 10.6168 404.888 8.82159 404.888 7.02638C404.888 6.76992 404.914 6.51708 404.928 6.18115C405.209 6.27868 405.41 6.33647 405.605 6.41594C413.206 9.47899 420.808 12.542 428.409 15.6051C429.036 15.8579 429.039 15.8615 429.039 16.5623C429.039 18.0721 429.039 19.5856 429.039 21.0955C429.039 21.8215 429.036 21.8251 428.363 22.096C422.906 24.2958 417.446 26.4955 411.99 28.6953C409.866 29.5514 407.746 30.4074 405.623 31.2599C405.443 31.3321 405.263 31.3935 404.95 31.5091L404.953 31.5019Z" fill="#DDDDDD" fill-opacity="0.9"/>
<path d="M478.834 41.6372V49.4502C478.01 49.5152 477.204 49.5188 476.419 49.6524C475.502 49.8114 474.569 49.9956 473.698 50.3171C471.553 51.1153 470.488 52.7697 470.293 55.0164C470.257 55.4282 470.265 55.8472 470.265 56.2626C470.265 60.709 470.265 65.1519 470.265 69.5984V70.3714C469.775 70.5267 463.545 70.5845 462.343 70.4544C462.199 69.9957 462.134 43.259 462.274 42.0526C462.746 41.9009 469.584 41.8828 470.265 42.0418V46.8531C470.304 46.8711 470.344 46.8892 470.383 46.9036C471.179 45.2926 472.197 43.8731 473.745 42.9231C475.296 41.9695 477.006 41.6517 478.834 41.6372Z" fill="#DDDDDD" fill-opacity="0.9"/>
</g>
<defs>
<clipPath id="clip0_2665_4182">
<rect width="246.957" height="10" fill="white" transform="translate(261.031 6.17383)"/>
</clipPath>
</defs>
</svg>
