<svg width="39" height="38" viewBox="0 0 39 38" fill="none" xmlns="http://www.w3.org/2000/svg">
<g clip-path="url(#clip0_2665_4049)">
<path fill-rule="evenodd" clip-rule="evenodd" d="M38.2226 0H0.111328V38.1112H38.2226V0ZM30.2842 12.7944C31.394 12.6608 32.465 12.3815 33.4587 11.9565C32.7102 13.0129 31.7811 13.9358 30.6972 14.6644C30.7101 14.8951 30.7101 15.1137 30.7101 15.3444C30.7101 22.2297 25.1226 30.1714 14.9541 30.1714C11.8313 30.1714 8.91499 29.3092 6.4632 27.8277C6.90194 27.8763 7.34068 27.9006 7.77942 27.9006C10.2751 27.9119 12.7006 27.124 14.6573 25.6662C13.503 25.6464 12.3843 25.2867 11.4584 24.6376C10.5326 23.9885 9.84616 23.0827 9.49567 22.0475C10.3217 22.2007 11.1741 22.1716 11.9862 21.9625C9.45696 21.4889 7.54715 19.376 7.54715 16.8502V16.8138C8.29559 17.1781 9.14726 17.4209 10.0635 17.4209C8.56657 16.5102 7.59876 14.9073 7.59876 13.0979C7.59876 12.1508 7.86975 11.2522 8.3472 10.4871C11.07 13.6322 15.1606 15.7087 19.7545 15.9273C19.6641 15.5509 19.6125 15.1501 19.6125 14.7373C19.6125 11.8593 22.0901 9.52781 25.1226 9.52781C26.7485 9.52781 28.1809 10.135 29.2003 11.1793C30.452 10.9364 31.6392 10.5114 32.7102 9.90425C32.2973 11.1307 31.4198 12.1508 30.2842 12.7944Z" fill="#D9D9D9"/>
</g>
<defs>
<clipPath id="clip0_2665_4049">
<rect x="0.111328" width="38.1112" height="38.1112" rx="3.17594" fill="white"/>
</clipPath>
</defs>
</svg>
