<svg width="36" height="36" viewBox="0 0 36 36" fill="none" xmlns="http://www.w3.org/2000/svg">
<g clip-path="url(#clip0_3191_4193)">
<path fill-rule="evenodd" clip-rule="evenodd" d="M36 0H0V36H36V0ZM28.5013 12.0856C29.5496 11.9594 30.5613 11.6956 31.4999 11.2941C30.7929 12.292 29.9152 13.1638 28.8913 13.852C28.9035 14.07 28.9035 14.2764 28.9035 14.4944C28.9035 20.9982 23.6256 28.5 14.0204 28.5C11.0706 28.5 8.31582 27.6856 5.99985 26.2861C6.41429 26.332 6.82872 26.355 7.24316 26.355C9.60056 26.3657 11.8917 25.6214 13.7401 24.2444C12.6497 24.2257 11.5929 23.8859 10.7183 23.2727C9.84379 22.6596 9.19541 21.804 8.86434 20.8261C9.64457 20.9709 10.4498 20.9434 11.2169 20.7459C8.82777 20.2985 7.02375 18.3026 7.02375 15.9167V15.8823C7.73073 16.2264 8.53522 16.4559 9.40066 16.4559C7.98671 15.5956 7.07251 14.0814 7.07251 12.3723C7.07251 11.4776 7.32848 10.6288 7.77949 9.90615C10.3514 12.877 14.2154 14.8385 18.5548 15.045C18.4695 14.6894 18.4207 14.3109 18.4207 13.9209C18.4207 11.2023 20.7611 8.99997 23.6256 8.99997C25.1614 8.99997 26.5144 9.5735 27.4774 10.56C28.6597 10.3306 29.7812 9.92909 30.7929 9.35556C30.4028 10.5141 29.5739 11.4776 28.5013 12.0856Z" fill="black"/>
</g>
<defs>
<clipPath id="clip0_3191_4193">
<rect width="36" height="36" rx="3.17594" fill="white"/>
</clipPath>
</defs>
</svg>
