<svg width="231" height="65" viewBox="0 0 231 65" fill="none" xmlns="http://www.w3.org/2000/svg">
<g clip-path="url(#clip0_2665_4143)">
<path d="M8.93564 64.2955H1.23692V61.2685C1.19733 61.2541 1.16134 61.2397 1.12174 61.2252C1.01377 61.348 0.902193 61.4636 0.794216 61.59C-1.11337 63.8187 -3.55004 64.8879 -6.45821 64.9384C-8.04546 64.9637 -9.59312 64.7542 -11.076 64.1654C-14.1821 62.9301 -15.773 60.5967 -15.9709 57.2808C-16.0357 56.2297 -16.0069 55.1786 -15.773 54.1419C-15.1683 51.4581 -13.4983 49.6665 -11.0724 48.5215C-9.51754 47.7882 -7.8655 47.4053 -6.17027 47.185C-4.1943 46.9286 -2.20753 46.943 -0.220763 46.9502C0.128361 46.9502 0.473886 46.9502 0.909391 46.9502C0.938185 46.1592 0.981377 45.4006 0.880598 44.6493C0.556669 42.2653 -0.641871 41.1709 -3.03535 41.1023C-3.61842 41.0842 -4.21949 41.142 -4.78457 41.2793C-6.26745 41.6368 -7.14206 42.6157 -7.44799 44.1111C-7.48038 44.2592 -7.50198 44.4109 -7.53437 44.5626C-7.53797 44.5807 -7.55957 44.5988 -7.60276 44.6566H-15.0855C-15.0099 44.1653 -14.9704 43.6957 -14.866 43.237C-14.0957 39.9103 -12.0802 37.6599 -8.94167 36.3993C-6.86132 35.5649 -4.68379 35.3085 -2.45948 35.3446C-0.260355 35.3807 1.88838 35.6877 3.90394 36.6377C6.74012 37.9742 8.33458 40.2354 8.79168 43.3201C8.89245 44.01 8.92845 44.7143 8.92845 45.4151C8.93925 51.4401 8.93564 57.4614 8.93564 63.4864V64.2991V64.2955ZM0.91659 52.3539C0.805014 52.3142 0.743828 52.2708 0.686239 52.2708C-1.12417 52.2781 -2.94177 52.1336 -4.73418 52.4514C-7.27163 52.8993 -8.25062 54.1238 -8.12824 56.3633C-8.04906 57.8262 -7.31122 58.8737 -5.91113 59.2638C-4.00354 59.7984 -2.23273 59.4228 -0.641871 58.2633C0.160753 57.6781 0.664644 56.8618 0.833807 55.8649C1.03176 54.6945 0.902193 53.517 0.91659 52.3539Z" fill="#DDDDDD" fill-opacity="0.9"/>
<path d="M230.856 52.1119H212.431C212.579 54.1419 212.899 56.0347 214.256 57.5879C214.738 58.1369 215.329 58.5523 216.023 58.7979C217.585 59.3433 219.151 59.3542 220.699 58.769C222.164 58.2128 223.078 57.1183 223.607 55.6265H230.96C230.939 55.7782 230.931 55.9227 230.892 56.06C229.762 60.0983 227.203 62.8182 223.254 64.1294C219.713 65.3069 216.113 65.2816 212.579 64.0824C208.573 62.7243 206.09 59.8743 204.934 55.8288C204.214 53.3112 204.146 50.7357 204.344 48.1423C204.506 46.0256 205.006 43.992 205.985 42.1028C207.997 38.2271 211.222 36.0309 215.487 35.3735C217.909 34.9979 220.321 35.1387 222.671 35.8828C226.735 37.1723 229.243 39.9464 230.323 44.0534C230.694 45.4549 230.863 46.8889 230.856 48.3409C230.856 49.3487 230.856 50.3565 230.856 51.3642V52.1156V52.1119ZM222.999 46.7697C222.941 45.4982 222.75 44.3423 222.207 43.2659C221.847 42.5471 221.354 41.9403 220.659 41.5249C218.687 40.3401 215.883 40.5352 214.213 42.3123C213.047 43.5513 212.572 45.0973 212.287 46.7697H222.999Z" fill="#DDDDDD" fill-opacity="0.9"/>
<path d="M99.1243 52.1012H80.6027C80.7647 54.189 81.0958 56.1287 82.5283 57.6891C83.1186 58.3321 83.8636 58.7438 84.7022 58.9714C85.71 59.2459 86.7394 59.2676 87.7544 59.087C89.7519 58.7366 91.0908 57.5663 91.7891 55.6158H99.1783C99.1027 55.9697 99.0487 56.3021 98.9587 56.6235C97.9761 60.1164 95.7338 62.5148 92.4154 63.8188C88.4886 65.3612 84.4719 65.3828 80.5127 63.9272C76.712 62.5293 74.3869 59.7155 73.2711 55.8578C72.5369 53.3185 72.4721 50.7178 72.6772 48.1062C72.8392 46.0365 73.3323 44.0499 74.2753 42.186C76.1037 38.5703 79.0371 36.3706 82.9494 35.5217C85.4365 34.9799 87.9379 35.0521 90.407 35.7095C94.7584 36.8726 97.4938 39.672 98.6456 44.0173C98.8903 44.942 99.0667 45.9065 99.1099 46.8601C99.1855 48.5614 99.1315 50.2699 99.1315 52.0976L99.1243 52.1012ZM80.7791 46.7553H91.3284C91.2708 45.473 91.0728 44.2738 90.4898 43.1685C90.1478 42.5183 89.6907 41.9621 89.0645 41.572C86.8654 40.1994 83.5109 40.5389 81.9344 43.1432C81.265 44.2485 80.9338 45.4586 80.7755 46.7553H80.7791Z" fill="#DDDDDD" fill-opacity="0.9"/>
<path d="M112.042 64.2957H104.077V35.9805H112.024V39.9213C112.175 39.7949 112.265 39.7479 112.309 39.6757C114 36.9052 116.563 35.6301 119.698 35.3701C120.9 35.2689 122.098 35.334 123.272 35.6446C126.209 36.4248 127.947 38.3934 128.771 41.2578C129.142 42.5509 129.282 43.8765 129.286 45.2166C129.293 51.35 129.286 57.4833 129.286 63.613C129.286 63.8261 129.286 64.0392 129.286 64.2921H121.303C121.289 64.0031 121.267 63.7286 121.267 63.4541C121.267 57.8914 121.271 52.3288 121.256 46.7662C121.256 46.0474 121.199 45.3178 121.062 44.6134C120.742 42.9699 119.712 42.0344 118.057 41.7562C117.225 41.6154 116.397 41.637 115.587 41.8502C113.633 42.3703 112.517 43.6815 112.168 45.6537C112.078 46.1666 112.049 46.6976 112.049 47.2213C112.042 52.6322 112.046 58.0395 112.046 63.4504V64.2885L112.042 64.2957Z" fill="#DDDDDD" fill-opacity="0.9"/>
<path d="M154.214 35.9804H162.226V36.7895C162.226 42.5291 162.219 48.2687 162.237 54.0083C162.237 54.7235 162.319 55.4568 162.485 56.1539C162.863 57.7613 163.917 58.6643 165.551 58.8558C166.293 58.9425 167.034 58.9099 167.761 58.7149C169.716 58.1839 171.051 56.5729 171.242 54.4924C171.285 54.0336 171.292 53.5749 171.292 53.1125C171.292 47.68 171.292 42.2474 171.292 36.8148V36.0563C171.85 35.9082 178.591 35.8901 179.275 36.0274V64.2883H171.486C171.386 63.6418 171.454 62.9916 171.44 62.345C171.425 61.7238 171.429 61.1025 171.299 60.4559C171.209 60.5932 171.112 60.7304 171.026 60.8677C169.644 63.0458 167.653 64.3136 165.145 64.7651C163.359 65.0866 161.578 65.0144 159.843 64.4292C157.01 63.4684 155.369 61.4203 154.624 58.5849C154.333 57.4796 154.214 56.3454 154.214 55.2039C154.214 49.0056 154.214 42.8036 154.214 36.6053V35.9804Z" fill="#DDDDDD" fill-opacity="0.9"/>
<path d="M61.9412 53.7916H69.0461C69.1181 54.6585 68.9309 55.4676 68.7257 56.2622C67.5236 60.976 64.4571 63.7212 59.7601 64.6459C57.0211 65.1841 54.2857 65.0649 51.6115 64.198C47.9007 62.9916 45.3884 60.5245 44.0135 56.8727C43.47 55.4279 43.1569 53.9325 43.0453 52.3973C42.8186 49.2692 42.9517 46.1737 44.1719 43.2298C46.0363 38.7256 49.4267 36.1285 54.1993 35.3735C56.7547 34.969 59.2958 35.146 61.7541 36.0237C65.5188 37.3674 67.7971 40.0367 68.6646 43.9342C68.8013 44.5482 68.8733 45.1768 68.9849 45.8594H61.4337C61.3941 45.7294 61.3509 45.5921 61.3113 45.4477C61.2538 45.2382 61.2034 45.0214 61.1386 44.8155C60.5663 43.0059 59.4757 41.7272 57.5214 41.4491C55.5022 41.1637 53.8142 41.8103 52.5796 43.4791C51.7806 44.5591 51.3631 45.8053 51.1832 47.1201C50.8448 49.5654 50.8376 52.0108 51.3955 54.4309C51.6295 55.4423 52.065 56.3634 52.7092 57.1942C54.4512 59.4301 59.4146 59.961 61.2142 55.9372C61.5165 55.2653 61.6929 54.5357 61.9412 53.7988V53.7916Z" fill="#DDDDDD" fill-opacity="0.9"/>
<path d="M39.3349 45.8666H31.8053C31.6793 45.4332 31.5821 45.0322 31.4526 44.6421C30.29 41.1853 26.0969 40.2245 23.5127 42.818C22.6381 43.6958 22.0802 44.7649 21.8067 45.9497C21.1228 48.9188 21.1408 51.8952 21.8858 54.8571C21.965 55.1714 22.0982 55.4784 22.2278 55.7782C23.5127 58.7798 26.3345 59.2422 28.4472 58.7148C29.6206 58.4222 30.5096 57.6962 31.1754 56.692C31.6397 55.9913 31.9313 55.2147 32.1112 54.3948C32.1544 54.2033 32.194 54.0119 32.2444 53.7952H39.4752C39.4248 54.2611 39.3924 54.709 39.3241 55.1497C38.8382 58.1911 37.5172 60.7556 35.0014 62.6123C33.4213 63.7754 31.6289 64.4291 29.7033 64.7253C26.9175 65.1516 24.1713 65.0107 21.5079 64.0318C17.9375 62.7242 15.5764 60.2102 14.3023 56.6379C13.2729 53.7482 13.1973 50.761 13.4529 47.7521C13.604 45.975 14.0431 44.2592 14.799 42.6374C16.6202 38.7291 19.6615 36.3632 23.851 35.4999C26.4568 34.9617 29.0663 35.0629 31.6181 35.8575C35.9696 37.2157 38.4242 40.2318 39.1873 44.6963C39.2485 45.0611 39.2809 45.4296 39.3384 45.8666H39.3349Z" fill="#DDDDDD" fill-opacity="0.9"/>
<path d="M135.923 41.8213H132.633V35.9733H135.901C135.951 34.1601 135.901 32.419 135.933 30.6527C138.572 29.5583 141.188 28.4746 143.902 27.3477C143.985 28.0954 143.934 28.7853 143.945 29.468C143.952 30.1904 143.945 30.9128 143.945 31.6352V35.9228H149.348V41.7491C148.768 41.8971 148.181 41.7996 147.602 41.8177C146.99 41.8357 146.378 41.8213 145.77 41.8213C145.162 41.8213 144.604 41.8213 143.945 41.8213V42.5437C143.945 46.6832 143.938 50.8226 143.952 54.9621C143.952 55.5256 144.003 56.1035 144.129 56.6525C144.363 57.6495 145.047 58.2057 146.051 58.3719C147.037 58.5344 148.005 58.4152 148.97 58.1841C149.117 58.1479 149.261 58.101 149.405 58.0612C149.542 58.5308 149.585 63.1182 149.463 64.2054C149.135 64.2885 148.783 64.3969 148.426 64.4655C146.13 64.8989 143.83 64.9603 141.541 64.4113C138.597 63.7033 136.786 61.8612 136.185 58.8776C136.03 58.1082 135.948 57.3135 135.944 56.5297C135.919 51.9099 135.922 47.29 135.919 42.6665C135.919 42.4101 135.919 42.1572 135.919 41.8249L135.923 41.8213Z" fill="#DDDDDD" fill-opacity="0.9"/>
<path d="M127.922 25.5019C127.893 25.1913 127.861 24.9818 127.857 24.7722C127.854 22.8 127.854 20.8315 127.857 18.8593C127.857 18.1549 127.864 18.1549 128.512 17.9165C132.781 16.3308 137.05 14.7451 141.318 13.1594C141.516 13.0871 141.703 12.9824 142.017 12.8343C141.732 12.697 141.574 12.6067 141.405 12.5417C137.194 10.9271 132.979 9.31974 128.768 7.70513C127.803 7.33309 127.857 7.48118 127.857 6.412C127.857 4.6168 127.857 2.82159 127.857 1.02638C127.857 0.769923 127.882 0.517077 127.897 0.181152C128.178 0.278679 128.379 0.336472 128.573 0.415938C136.175 3.47899 143.777 6.54204 151.378 9.60509C152.004 9.85794 152.008 9.86155 152.008 10.5623C152.008 12.0721 152.008 13.5856 152.008 15.0955C152.008 15.8215 152.004 15.8251 151.331 16.096C145.875 18.2958 140.415 20.4955 134.958 22.6953C132.835 23.5514 130.715 24.4074 128.591 25.2599C128.411 25.3321 128.232 25.3935 127.918 25.5091L127.922 25.5019Z" fill="#DDDDDD" fill-opacity="0.9"/>
<path d="M201.803 35.6372V43.4502C200.979 43.5152 200.173 43.5188 199.388 43.6524C198.47 43.8114 197.538 43.9956 196.667 44.3171C194.522 45.1153 193.457 46.7697 193.262 49.0164C193.226 49.4282 193.233 49.8472 193.233 50.2626C193.233 54.709 193.233 59.1519 193.233 63.5984V64.3714C192.744 64.5267 186.514 64.5845 185.312 64.4544C185.168 63.9957 185.103 37.259 185.243 36.0526C185.715 35.9009 192.553 35.8828 193.233 36.0418V40.8531C193.273 40.8711 193.313 40.8892 193.352 40.9036C194.148 39.2926 195.166 37.8731 196.714 36.9231C198.265 35.9695 199.975 35.6517 201.803 35.6372Z" fill="#DDDDDD" fill-opacity="0.9"/>
</g>
<defs>
<clipPath id="clip0_2665_4143">
<rect width="246.957" height="64.8261" fill="white" transform="translate(-16 0.173828)"/>
</clipPath>
</defs>
</svg>
