<svg width="156" height="71" viewBox="0 0 156 71" fill="none" xmlns="http://www.w3.org/2000/svg">
<path d="M110.988 46.192C109.578 40.4696 105.279 40.3396 101.643 40.914C100.862 41.0356 99.7766 41.9998 99.6668 42.7083C99.5655 43.3455 100.456 44.3894 101.174 44.8421C102.086 45.4207 103.26 45.6009 104.329 45.9279C104.797 46.0705 105.287 46.1292 105.76 46.2465C112.643 47.9905 115.941 51.5372 115.971 57.2177C116 63.2168 111.735 68.6123 105.498 70.0293C99.405 71.4127 93.3707 71.3289 87.4758 68.0841C87.2013 71.1193 85.0308 70.9306 82.8519 70.8426C81.1121 70.7713 79.3639 70.8258 77.2103 70.8258C78.3673 66.1389 79.4399 61.7873 80.5547 57.2806C83.4093 57.2806 86.1456 57.1884 88.8651 57.3519C89.49 57.3896 90.1825 58.2071 90.6386 58.815C92.9273 61.8502 95.7819 63.0575 98.6111 61.7915C99.557 61.3681 100.165 60.2068 100.929 59.3851C100.098 58.7647 99.3543 57.8927 98.4211 57.5657C95.9128 56.6895 93.244 56.2367 90.7864 55.2557C87.1928 53.822 84.1314 51.5959 83.8527 47.3449C83.5444 42.6538 84.8746 38.4908 88.9242 35.5856C91.6901 33.6027 94.8782 32.8229 98.21 32.5588C103.189 32.1647 108.019 32.8313 112.783 34.8981C113.184 32.8313 114.704 32.9193 116.283 32.9738C118.386 33.0409 120.489 32.9906 122.905 32.9906C121.845 37.2625 120.848 41.35 119.78 45.4165C119.695 45.7435 119.091 46.1417 118.72 46.1501C116.127 46.213 113.534 46.1837 110.988 46.1837V46.192Z" fill="#DDDDDD" fill-opacity="0.9"/>
<path d="M63.0303 32.0599C62.2196 34.7304 61.6157 37.0906 60.7501 39.3503C60.5051 39.9875 59.5044 40.3396 58.4825 41.0942C58.7527 44.9428 59.061 49.265 59.365 53.5872C59.5635 53.6166 59.7662 53.6417 59.9646 53.6711C61.8606 49.3782 63.7609 45.0853 65.7287 40.6331C64.863 40.4403 64.2254 40.2977 63.4526 40.1258C64.1536 37.7698 64.7701 35.4892 65.5471 33.2631C65.716 32.781 66.4592 32.1773 66.9448 32.1731C73.1269 32.0976 79.309 32.1228 85.8669 32.1228C84.693 34.8394 83.6331 37.3044 82.5563 39.7653C82.4803 39.9456 82.286 40.2139 82.1551 40.2097C79.2203 40.1133 78.8994 42.7418 77.869 44.4397C72.8567 52.6733 67.9498 60.9698 63.0768 69.2873C62.3505 70.524 61.5693 71.0396 60.104 70.9977C56.5991 70.8887 53.09 70.9642 49.3825 70.9642C48.1452 60.756 46.9206 50.6862 45.6918 40.5409C44.8472 40.4444 44.1631 40.369 43.0061 40.2348C43.7282 37.6608 44.4081 35.1119 45.1977 32.5965C45.2864 32.3156 46.0043 32.0851 46.4308 32.0809C51.8359 32.0473 57.241 32.0599 63.0346 32.0599H63.0303Z" fill="#DDDDDD" fill-opacity="0.9"/>
<path d="M47.7567 24.4048C49.2009 24.2078 50.3748 23.8389 51.5149 23.9311C56.9243 24.3545 62.3082 24.736 67.65 23.3442C73.0382 21.9398 77.7212 19.4328 81.205 15.0183C83.2024 12.4862 85.7782 12.2389 88.6075 13.0522C91.1664 13.79 93.679 14.6913 96.2295 15.4669C100.123 16.6533 103.961 16.3305 107.454 14.3224C111.461 12.0167 115.304 9.43423 119.189 6.92306C122.318 4.8982 124.754 4.67182 128.479 6.41161C128.88 5.78277 129.353 5.02816 129.83 4.27774C130.028 4.31547 130.223 4.3532 130.421 4.38674C130.21 9.59773 134.754 12.1047 136.78 16.0287C134.606 18.0577 132.731 17.9445 130.417 15.6975C129.716 15.0183 129.082 14.029 128.242 13.7858C127.081 13.4504 125.654 13.4085 124.53 13.7858C123.918 13.9912 123.162 15.5885 123.411 16.1125C123.888 17.1019 124.91 18.1835 125.936 18.4979C134.986 21.3109 144.086 23.9646 153.169 26.6603C154.267 26.9873 155.5 27.1843 154.824 28.9492H147.211C146.286 27.8215 145.771 26.5429 144.922 26.2662C139.078 24.3671 133.107 23.1136 126.891 24.0359C126.135 24.1491 125.354 24.2916 124.657 24.5851C120.789 26.2117 116.887 27.0669 112.576 26.6435C109.193 26.3123 105.722 26.916 102.289 26.9915C100.891 27.025 99.4852 26.7986 98.0917 26.6351C94.4095 26.1991 90.7611 25.5409 87.0197 26.4297C85.7107 26.7399 84.1398 26.6393 82.8519 26.2243C79.0092 24.9876 75.3016 25.717 71.48 26.3333C64.3647 27.482 57.2156 27.8048 50.1721 25.7044C49.5683 25.5242 48.9644 25.3397 48.369 25.1301C48.2592 25.0924 48.1916 24.9289 47.7525 24.409L47.7567 24.4048Z" fill="#DDDDDD" fill-opacity="0.9"/>
<path d="M29.7425 44.5571C30.0254 43.203 30.2788 41.9956 30.5279 40.805C27.5424 39.7821 26.8964 40.1133 26.2376 42.9053C24.7428 49.2859 23.2395 55.6624 21.7489 62.043C21.6391 62.5084 21.6011 62.9863 21.4955 63.6738C22.5216 63.8205 23.4464 63.9589 24.6583 64.135C23.8813 66.273 23.1973 68.3063 22.378 70.285C22.2345 70.633 21.5166 70.9348 21.0605 70.9348C14.9418 70.9767 8.82305 70.9642 2.28203 70.9642C3.21948 68.5243 4.0218 66.2646 4.99303 64.0805C5.15349 63.7157 6.10361 63.7535 6.61878 63.4768C7.26908 63.1246 8.24454 62.7515 8.39656 62.2023C10.339 55.0797 12.1548 47.9276 14.0044 40.7924C10.7824 39.7779 10.1997 39.9749 9.30022 42.876C8.81883 44.4271 8.0334 44.9805 6.43721 44.8673C4.63832 44.7415 2.82676 44.8379 0.668945 44.8379C1.90198 40.4948 2.98723 36.4786 4.25405 32.5211C4.40185 32.0599 5.57577 31.6784 6.27674 31.6742C15.989 31.6197 25.7013 31.6365 35.4136 31.6365C37.3772 31.6365 39.3408 31.6365 41.676 31.6365C41.1777 33.4769 40.7385 35.1119 40.2909 36.7469C40.1051 37.4176 39.9024 38.0842 39.7124 38.755C37.7826 45.5255 37.1787 45.8902 29.7425 44.5613V44.5571Z" fill="#DDDDDD" fill-opacity="0.9"/>
<path d="M108.471 6.88114C107.411 6.93564 106.807 6.96499 105.769 7.01949C110.295 4.11424 114.286 1.00358 119.29 0.127396C121.456 -0.249908 123.834 0.290895 126.059 0.710122C126.836 0.856851 127.44 1.88396 128.158 2.53795C127.811 2.85237 127.71 3.02006 127.626 3.01168C122.63 2.49184 118.564 4.40351 114.582 7.27102C111.208 9.70254 107.369 11.5429 103.602 13.3792C102.2 14.0625 100.418 13.9828 98.6998 13.9116C102.027 11.7945 106.047 10.8219 108.471 6.87695V6.88114Z" fill="#DDDDDD" fill-opacity="0.9"/>
<path d="M82.7336 11.0944C79.2668 13.7523 75.403 15.425 71.1338 15.4376C69.6727 15.4418 68.0047 14.3476 66.7844 13.333C64.407 11.3543 62.1436 9.33362 58.4571 9.36716C61.3075 7.09075 64.1789 7.0111 66.5099 8.8557C69.4531 11.1866 72.6286 11.1992 75.9984 11.1069C78.2406 11.0441 80.4871 11.0944 82.7336 11.0944Z" fill="#DDDDDD" fill-opacity="0.9"/>
</svg>
