<svg width="81" height="25" viewBox="0 0 81 25" fill="none" xmlns="http://www.w3.org/2000/svg">
<path fill-rule="evenodd" clip-rule="evenodd" d="M8.85004 16.4624C10.4164 15.6289 11.8463 14.6931 13.3199 13.8636C19.5814 10.3491 25.218 6.63576 32.2106 4.24588C36.7373 2.69949 39.5385 2.84409 43.9079 4.49692C47.2167 5.74809 50.3835 7.67806 53.3022 9.35901C57.647 11.8614 61.0013 14.0544 65.9957 15.171C70.9277 16.2736 77.5984 17.2336 79.1268 20.0512C80.2632 22.1559 76.1078 23.9553 76.6703 24.7707C86.0266 18.784 77.1457 16.2977 71.0357 14.7674C68.0488 14.0203 66.2722 13.6387 64.5866 13.0342C59.7512 11.301 53.7283 6.83859 48.7717 4.274C39.8908 -0.323001 35.7278 -0.0338058 26.665 4.05911C24.9604 4.82829 13.5869 11.1263 8.30836 14.1207C7.19658 14.7513 2.15287 17.8019 3.28169 14.0444L6.97877 1.72948L0.578958 2.11909L0.251296 3.39235C1.59603 3.39235 2.41424 3.46867 2.70781 3.61728C3.54306 4.05308 2.95971 5.64165 2.7419 6.32849C1.89529 9.10596 0.77404 12.2309 0.162279 15.0405C-0.447589 17.8019 0.675551 19.527 3.29495 18.9386C5.35372 18.4767 7.01097 17.4384 8.84815 16.4604L8.85004 16.4624Z" fill="#18191A"/>
</svg>
